<?xml version="1.0" encoding="UTF-8"?>
<svg width="1000" height="250" viewBox="0 0 1000 250" xmlns="http://www.w3.org/2000/svg">
  <!-- House Icon -->
  <path d="M50 150 L100 50 L150 150 L50 150" fill="#FF6B00"/>
  <path d="M75 150 L100 75 L125 150 L75 150" fill="white"/>
  
  <!-- Text -->
  <path d="M250 150 V50 H300 V150 H250" fill="#006699"/> <!-- L -->
  <path d="M320 150 V50 H370 L395 100 L420 50 H470 V150 H420 V100 L395 150 L370 100 V150 H320" fill="#006699"/> <!-- U -->
  <path d="M490 150 L515 50 H565 L590 150 H540 L535 130 H520 L515 150 H490 M520 100 H535 L530 80 L525 100" fill="#006699"/> <!-- X -->
  <path d="M610 150 V50 H710 V90 H660 V150 H610" fill="#006699"/> <!-- C -->
  <path d="M730 150 V50 H780 V110 H830 V150 H730" fill="#006699"/> <!-- I -->
  <path d="M850 150 L875 50 H925 L950 150 H900 L895 130 H880 L875 150 H850 M880 100 H895 L890 80 L885 100" fill="#006699"/> <!-- T -->
  <path d="M970 150 V50 H1020 V150 H970" fill="#006699"/> <!-- Y -->
</svg>